HIERARCHY
ROOT Hips
{
	OFFSET 0.00000 0.00000 0.00000
	CHANNELS 6 Xposition Yposition Zposition Zrotation Yrotation Xrotation 
	JOINT LHipJoint
	{
		OFFSET 0 0 0
		CHANNELS 3 Zrotation Yrotation Xrotation
		JOINT LeftUpLeg
		{
			OFFSET 1.55766 -1.60504 1.11378
			CHANNELS 3 Zrotation Yrotation Xrotation
			JOINT LeftLeg
			{
				OFFSET 2.29047 -6.29302 0.00000
				CHANNELS 3 Zrotation Yrotation Xrotation
				JOINT LeftFoot
				{
					OFFSET 2.52265 -6.93093 0.00000
					CHANNELS 3 Zrotation Yrotation Xrotation
					JOINT LeftToeBase
					{
						OFFSET 0.17633 -0.48446 2.02656
						CHANNELS 3 Zrotation Yrotation Xrotation
						End Site
						{
							OFFSET 0.00000 -0.00000 1.04989
						}
					}
				}
			}
		}
	}
	JOINT RHipJoint
	{
		OFFSET 0 0 0
		CHANNELS 3 Zrotation Yrotation Xrotation
		JOINT RightUpLeg
		{
			OFFSET -1.48599 -1.60504 1.11378
			CHANNELS 3 Zrotation Yrotation Xrotation
			JOINT RightLeg
			{
				OFFSET -2.27280 -6.24448 0.00000
				CHANNELS 3 Zrotation Yrotation Xrotation
				JOINT RightFoot
				{
					OFFSET -2.50834 -6.89161 0.00000
					CHANNELS 3 Zrotation Yrotation Xrotation
					JOINT RightToeBase
					{
						OFFSET -0.26967 -0.74090 2.08741
						CHANNELS 3 Zrotation Yrotation Xrotation
						End Site
						{
							OFFSET -0.00000 -0.00000 1.10614
						}
					}
				}
			}
		}
	}
	JOINT LowerBack
	{
		OFFSET 0 0 0
		CHANNELS 3 Zrotation Yrotation Xrotation
		JOINT Spine
		{
			OFFSET 0.06481 2.02437 -0.08472
			CHANNELS 3 Zrotation Yrotation Xrotation
			JOINT Spine1
			{
				OFFSET 0.00015 1.96711 0.18069
				CHANNELS 3 Zrotation Yrotation Xrotation
				JOINT Neck
				{
					OFFSET 0 0 0
					CHANNELS 3 Zrotation Yrotation Xrotation
					JOINT Neck1
					{
						OFFSET -0.29961 1.68293 -0.13041
						CHANNELS 3 Zrotation Yrotation Xrotation
						JOINT Head
						{
							OFFSET 0.59697 1.61501 -0.14669
							CHANNELS 3 Zrotation Yrotation Xrotation
							End Site
							{
								OFFSET 0.22973 1.74906 -0.10148
							}
						}
					}
				}
				JOINT LeftShoulder
				{
					OFFSET 0 0 0
					CHANNELS 3 Zrotation Yrotation Xrotation
					JOINT LeftArm
					{
						OFFSET 3.37968 1.02893 0.31147
						CHANNELS 3 Zrotation Yrotation Xrotation
						JOINT LeftForeArm
						{
							OFFSET 5.19807 -0.00000 -0.00000
							CHANNELS 3 Zrotation Yrotation Xrotation
							JOINT LeftHand
							{
								OFFSET 3.09370 -0.00000 -0.00000
								CHANNELS 3 Zrotation Yrotation Xrotation
								JOINT LeftFingerBase
								{
									OFFSET 0 0 0
									CHANNELS 3 Zrotation Yrotation Xrotation
									JOINT LeftHandIndex1
									{
										OFFSET 0.67263 -0.00000 -0.00000
										CHANNELS 3 Zrotation Yrotation Xrotation
										End Site
										{
											OFFSET 0.54229 -0.00000 -0.00000
										}
									}
								}
								JOINT LThumb
								{
									OFFSET 0 0 0
									CHANNELS 3 Zrotation Yrotation Xrotation
									End Site
									{
										OFFSET 0.55057 -0.00000 0.55057
									}
								}
							}
						}
					}
				}
				JOINT RightShoulder
				{
					OFFSET 0 0 0
					CHANNELS 3 Zrotation Yrotation Xrotation
					JOINT RightArm
					{
						OFFSET -3.38254 0.96355 -0.16120
						CHANNELS 3 Zrotation Yrotation Xrotation
						JOINT RightForeArm
						{
							OFFSET -5.45222 -0.00000 -0.00000
							CHANNELS 3 Zrotation Yrotation Xrotation
							JOINT RightHand
							{
								OFFSET -3.01284 -0.00000 -0.00000
								CHANNELS 3 Zrotation Yrotation Xrotation
								JOINT RightFingerBase
								{
									OFFSET 0 0 0
									CHANNELS 3 Zrotation Yrotation Xrotation
									JOINT RightHandIndex1
									{
										OFFSET -0.62230 -0.00000 -0.00000
										CHANNELS 3 Zrotation Yrotation Xrotation
										End Site
										{
											OFFSET -0.50171 -0.00000 -0.00000
										}
									}
								}
								JOINT RThumb
								{
									OFFSET 0 0 0
									CHANNELS 3 Zrotation Yrotation Xrotation
									End Site
									{
										OFFSET -0.50937 -0.00000 0.50937
									}
								}
							}
						}
					}
				}
			}
		}
	}
}
MOTION
Frames: 15
Frame Time: 0.0571429
0.00 0.00 0.00 0 0 0 0 0 0 -21 0 0 0 0 0 0 0 0 0 0 0 0 0 0 21 0 0 0 0 0 0 0 0 0 0 0 0 0 0 0 0 0 0 0 0 0 0 -16 0 0 21 0 0 11 0 0 0 -8 0 0 0 0 0 0 0 0 0 0 0 0 0 0 0 0 0 0 0 0 8 0 0 0 0 0 0 0 0 0 0 0 0 0 0 0 0 0
0.00 0.00 0.00 -177.8020 -16.0542 -165.6290 0.0000 0.0000 0.0000 -15.4692 -1.8725 -28.7317 2.2543 9.3769 26.9815 0.5811 -13.1903 -15.3543 1.4084 -7.5063 -21.2242 0.0000 0.0000 0.0000 23.8908 -4.4522 -23.6209 -1.5716 -7.9100 22.4410 -0.5184 16.0852 -16.0551 -0.5548 4.7711 -13.2570 5.1315 4.9457 -13.0968 -1.4404 5.6073 -3.7562 -3.4618 2.6545 3.9975 -26.0354 -2.4102 3.6762 37.9692 -7.5504 2.8403 18.6485 -4.9320 2.7183 -0.0000 -0.0000 0.0000 -33.1516 26.3706 95.5945 129.1087 -53.3487 -93.1124 -0.0000 0.0000 -110.2890 12.7448 33.2139 7.0627 -7.1250 0.0000 -0.0000 -23.7685 62.2868 -10.2993 -0.0000 -0.0000 0.0000 36.5809 -27.8620 89.5062 -119.3584 56.4785 -85.1245 0.0000 -0.0000 -49.3463 41.7376 -17.0773 -14.6809 7.1250 -0.0000 -0.0000 53.4864 -39.0318 12.6699
0.00 0.00 0.00 -178.0420 -16.0733 -165.6520 0.0000 0.0000 0.0000 -15.5876 -2.2532 -28.4757 2.2246 9.3189 26.7982 0.6063 -12.6835 -15.3950 1.4815 -7.6904 -21.7777 0.0000 0.0000 0.0000 23.5888 -3.7321 -23.5463 -1.6309 -8.0509 22.8687 -0.6144 15.1955 -16.4481 -0.5866 4.9040 -13.6349 4.5604 4.7035 -12.5526 -1.3165 5.3913 -3.7904 -3.0924 2.5414 3.5807 -26.4566 -2.7512 3.9364 38.3544 -8.1390 2.4097 18.9286 -5.2952 2.8267 0.0000 0.0000 0.0000 -35.0539 26.7583 92.6720 121.1107 -56.0066 -86.5814 -0.0000 0.0000 -98.2793 -10.4942 37.3194 -6.4074 -7.1250 0.0000 -0.0000 -50.9481 59.7959 -21.6968 0.0000 0.0000 0.0000 39.0040 -27.6228 83.1542 -103.9490 59.2519 -72.0498 0.0000 -0.0000 -35.7712 48.6519 -5.4847 -6.1987 7.1250 -0.0000 -0.0000 46.1365 -23.8493 38.4865
0.00 0.00 0.00 -178.2200 -15.9777 -165.7670 0.0000 0.0000 0.0000 -15.5859 -2.6867 -28.1170 2.2035 9.2776 26.6676 0.6450 -11.9558 -15.5007 1.5622 -7.8874 -22.3726 0.0000 0.0000 0.0000 23.3348 -2.7590 -23.2880 -1.6875 -8.1824 23.2695 -0.7113 14.1208 -16.8230 -0.6295 5.0766 -14.1271 4.1240 4.5480 -11.8109 -1.2706 5.2777 -3.9036 -2.8763 2.4764 3.0058 -26.6684 -3.1865 4.6514 38.5371 -8.8583 1.6821 19.0252 -5.7532 2.8010 -0.0000 0.0000 0.0000 -38.2519 26.9406 87.5834 108.7514 -58.6288 -76.1644 -0.0000 0.0000 -82.2937 -36.4821 33.1801 -22.0330 -7.1250 0.0000 -0.0000 -66.5526 51.6765 -17.2958 -0.0000 0.0000 0.0000 43.4036 -26.9747 75.4697 -86.6734 59.9581 -57.1195 0.0000 -0.0000 -26.9381 49.5740 -2.8949 -3.3929 7.1250 -0.0000 -0.0000 44.8594 -20.0036 43.4760
0.00 0.00 0.00 -178.2050 -15.7551 -165.8450 0.0000 0.0000 0.0000 -15.3701 -3.0748 -27.9197 2.2065 9.2835 26.6864 0.6950 -11.1404 -15.7151 1.6526 -8.1016 -23.0232 0.0000 0.0000 0.0000 23.2919 -1.7045 -23.0444 -1.7282 -8.2755 23.5539 -0.7798 13.1688 -17.0645 -0.6675 5.2247 -14.5506 3.8984 4.3367 -11.2596 -1.0726 5.0477 -3.9272 -2.6185 2.3604 2.6249 -27.2105 -3.7251 5.2884 38.6711 -9.6762 0.8508 19.1541 -6.2448 2.8266 -0.0000 0.0000 0.0000 -43.3115 26.8022 80.2224 92.5236 -59.9759 -62.1853 -0.0000 0.0000 -69.1088 -47.2176 25.7919 -25.1810 -7.1250 0.0000 -0.0000 -63.4267 44.9561 0.1245 -0.0000 0.0000 0.0000 48.9498 -25.1162 67.1135 -69.4252 58.3384 -42.2811 0.0000 -0.0000 -20.1071 43.8373 -6.7588 -6.4475 7.1250 -0.0000 -0.0000 46.8937 -28.4614 29.8427
0.00 0.00 0.00 -178.0660 -15.3674 -165.9300 0.0000 0.0000 0.0000 -14.9688 -3.4004 -27.8306 2.2395 9.3480 26.8902 0.7579 -10.2081 -16.0604 1.7431 -8.3090 -23.6567 0.0000 0.0000 0.0000 23.3501 -0.0436 -22.6304 -1.7785 -8.3886 23.9007 -0.8675 11.7359 -17.3875 -0.7181 5.4154 -15.0971 3.8028 4.0411 -10.8080 -0.7235 4.6836 -3.8601 -2.2823 2.1831 2.3841 -27.9165 -4.5750 6.3312 38.6633 -10.9463 -0.4088 19.1765 -6.9845 2.8497 -0.0000 -0.0000 0.0000 -51.6212 25.6603 69.2578 68.9376 -58.2556 -41.8663 -0.0000 0.0000 -55.9830 -38.8272 20.1365 -15.4860 -7.1250 0.0000 -0.0000 -55.0068 42.2422 5.8677 -0.0000 -0.0000 0.0000 57.0132 -21.3748 55.3023 -48.9004 52.5423 -25.2986 0.0000 -0.0000 -6.6774 27.6838 -9.6371 -5.0194 7.1250 -0.0000 -0.0000 42.7408 -35.6790 13.0355
0.00 0.00 0.00 -178.5010 -14.3121 -166.0060 0.0000 0.0000 0.0000 -15.0763 -3.3183 -27.5937 2.2677 9.4027 27.0632 0.8298 -9.0715 -16.5048 1.8842 -8.6206 -24.6157 0.0000 0.0000 0.0000 22.5952 4.4390 -21.6545 -1.9928 -8.8510 25.3304 -1.0571 7.9378 -18.3966 -0.7905 5.6756 -15.8460 3.1971 3.6754 -9.9570 -0.4817 4.2851 -4.0197 -1.8050 1.9762 1.6640 -28.9676 -5.8877 9.2777 38.9124 -13.3319 -2.7159 19.3483 -8.4802 2.7359 0.0000 0.0000 0.0000 -66.9309 20.8510 48.8457 35.4570 -45.1357 -15.1364 -0.0000 0.0000 -42.2986 4.7227 -0.7418 -0.0613 -7.1250 0.0000 -0.0000 -16.8938 29.0263 6.8488 0.0000 0.0000 0.0000 71.0335 -13.1706 30.1971 -26.0986 37.3059 -8.9474 0.0000 0.0000 6.5265 -9.8029 -11.6746 2.0024 7.1250 -0.0000 -0.0000 15.3880 -41.3176 1.4357
0.00 0.00 0.00 -179.4450 -13.1360 -165.9150 0.0000 0.0000 0.0000 -15.8179 -2.6486 -27.2401 2.2315 9.3325 26.8411 0.8633 -8.6098 -16.7451 1.9611 -8.7845 -25.1235 0.0000 0.0000 0.0000 21.6094 7.5848 -21.2483 -2.2427 -9.3544 26.9102 -1.1718 5.7026 -19.3650 -0.7826 5.6477 -15.7655 2.3317 3.4598 -9.7266 -0.6816 4.0706 -4.2726 -1.5766 1.8587 1.2197 -29.5941 -6.6234 12.3374 39.8103 -15.1769 -4.8200 19.9222 -9.8003 2.5067 0.0000 -0.0000 0.0000 -79.3935 12.9311 20.7580 19.4207 -29.9380 -5.2391 -0.0000 0.0000 -40.1803 35.5114 -19.9737 -13.6990 -7.1250 0.0000 -0.0000 4.4740 5.9809 -3.9960 0.0000 -0.0000 0.0000 81.1049 -6.1926 4.5903 -20.0182 30.6642 -5.5406 0.0000 0.0000 2.4365 -28.5517 -13.8993 7.4468 7.1250 -0.0000 -0.0000 -1.0540 -45.7109 0.0185
0.00 0.00 0.00 -176.8450 -9.0107 -168.8220 0.0000 0.0000 0.0000 -9.4543 -10.2562 -28.6100 5.5010 13.9267 42.9446 0.7482 5.4408 -19.2064 3.1985 -11.0096 -32.3124 0.0000 0.0000 0.0000 26.7379 7.7668 -18.9464 -2.7080 -10.2066 29.6485 -1.4185 9.9669 -21.4168 -0.5741 4.8522 -13.4876 8.2488 2.5817 -5.2913 0.0388 2.8527 -3.9375 -4.4384 1.1621 -0.7174 -30.6637 -8.0174 17.9205 43.6107 -19.4202 -11.0025 22.8113 -13.1587 2.3841 -0.0000 0.0000 0.0000 -83.8144 9.6507 52.5412 27.2503 -38.4168 -9.6542 -0.0000 0.0000 -17.3064 13.3178 -18.5893 -4.3155 -7.1250 0.0000 -0.0000 -9.6622 11.1209 7.7307 -0.0000 0.0000 0.0000 87.4266 -5.6227 49.5585 -21.0574 31.8953 -6.0802 0.0000 0.0000 31.5066 -6.8694 1.0635 -0.1281 7.1250 -0.0000 -0.0000 15.2219 -28.7536 6.2249
0.00 0.00 0.00 -173.6380 -7.9391 -172.2890 0.0000 0.0000 0.0000 -5.3629 -12.5170 -36.2532 10.5540 17.7098 61.3244 0.4234 3.9988 -14.4156 1.5888 -7.9513 -22.5662 0.0000 0.0000 0.0000 30.9921 6.3910 -16.8061 -3.1331 -10.9074 31.9683 -1.5625 11.7216 -22.6411 -0.5750 4.8560 -13.4982 10.9918 2.0767 -1.7451 2.3051 2.3774 -1.1160 -3.6963 1.0535 0.1793 -29.9245 -7.5004 17.6811 46.3085 -18.3641 -15.4699 25.3165 -13.2491 1.2356 -0.0000 -0.0000 0.0000 -84.9583 3.6200 62.5850 30.1193 -40.9954 -11.4878 -0.0000 0.0000 -24.7267 14.9583 -18.5818 -4.8662 -7.1250 0.0000 -0.0000 -8.5931 10.9596 6.8825 -0.0000 -0.0000 0.0000 82.6780 -0.4461 56.4412 -23.5482 34.6829 -7.4479 0.0000 0.0000 2.4668 -13.1037 -3.3155 0.7713 7.1250 -0.0000 -0.0000 10.9753 -33.2368 3.2149
0.00 0.00 0.00 -173.9240 -6.2591 -172.5280 0.0000 0.0000 0.0000 -9.0402 -14.0024 -43.8324 8.8321 16.6985 55.5078 0.5782 -1.6134 -13.9005 3.0115 -10.7137 -31.3203 0.0000 0.0000 0.0000 31.5131 6.1807 -14.4020 -3.4417 -11.3779 33.5651 -1.8681 13.1035 -24.8420 -0.6039 4.9744 -13.8356 9.7137 0.7676 -2.0903 3.1137 0.3206 1.8753 -2.1897 0.2240 3.1948 -26.2367 -6.3664 15.0915 49.4617 -16.3377 -21.1024 28.2239 -13.3971 -0.6095 0.0000 0.0000 0.0000 -86.3763 0.8990 57.0148 31.4168 -42.0772 -12.3482 -0.0000 0.0000 -43.9970 20.9263 -17.5472 -6.5764 -7.1250 0.0000 -0.0000 -4.6298 11.3244 3.6427 0.0000 0.0000 0.0000 85.3876 11.4463 35.4481 -10.4768 17.4819 -1.6152 0.0000 0.0000 30.7879 -13.1542 -6.8875 1.6054 7.1250 -0.0000 -0.0000 11.4961 -36.8332 2.3476
0.00 0.00 0.00 -174.4480 -3.3312 -168.1180 0.0000 0.0000 0.0000 -10.1005 -14.6992 -46.2308 2.8976 10.5274 30.7022 -0.0547 -5.3975 -1.7159 1.9410 -8.7422 -24.9920 0.0000 0.0000 0.0000 30.4247 4.2524 -8.2083 -1.4414 -7.5901 21.4758 -0.6692 18.0764 -18.1635 -0.8432 5.8572 -16.3706 8.3335 1.2394 -4.3595 2.3063 0.9934 -0.0051 -2.2162 0.5084 2.5587 -23.9685 -5.7587 14.8462 51.9668 -17.4022 -22.8929 30.0947 -15.1035 -0.3848 -0.0000 0.0000 0.0000 -85.9431 1.4114 52.7297 23.9888 -35.1524 -7.7001 -0.0000 0.0000 -46.7653 24.4273 -13.6170 -6.1035 -7.1250 0.0000 -0.0000 -2.0276 15.0876 1.4308 -0.0000 0.0000 0.0000 86.3409 2.5750 33.5043 -13.4417 21.9309 -2.6159 0.0000 0.0000 14.0042 -12.3596 -9.6270 2.0987 7.1250 -0.0000 -0.0000 12.7031 -39.5182 1.7490
0.00 0.00 0.00 -173.5940 1.8230 -165.1990 0.0000 0.0000 0.0000 -6.8288 -15.0778 -46.0734 2.0783 9.0274 25.8810 -0.2227 -8.4739 1.4663 1.6492 -8.0936 -22.9988 0.0000 0.0000 0.0000 29.4729 2.6184 3.3145 -0.0794 -1.8176 5.0018 0.9762 21.9234 -6.5433 -0.9648 6.2539 -17.5230 7.2062 1.3020 -7.2148 1.0352 1.2548 -0.8813 -2.8417 0.7623 3.2599 -24.5371 -15.3670 12.8545 53.1545 -17.2199 -13.8726 30.5247 -9.4064 3.8735 -0.0000 0.0000 0.0000 -85.1720 6.6834 42.0633 22.0665 -33.0521 -6.6221 -0.0000 0.0000 -45.1481 22.8124 -12.4234 -5.1706 -7.1250 0.0000 -0.0000 -3.0734 16.5515 2.0735 -0.0000 0.0000 0.0000 84.3018 -2.6733 53.3526 -15.4536 24.7742 -3.4138 0.0000 0.0000 15.4670 -7.5796 -3.6308 0.4828 7.1250 -0.0000 -0.0000 15.4352 -33.3368 4.5550
0.00 0.00 0.00 -176.4760 2.7365 -166.3540 0.0000 0.0000 0.0000 -13.4466 -13.2574 -41.2657 2.9187 10.5622 30.8172 -0.3019 -11.0583 -1.6445 0.5647 -4.8129 -13.3757 0.0000 0.0000 0.0000 25.0357 3.8538 3.6795 -0.8097 -5.7425 16.0391 1.5354 22.0010 2.3734 -1.8337 8.5107 -24.2763 3.3865 1.2753 -6.7646 -1.3963 1.5116 -0.0629 -3.1991 0.8374 3.8566 -20.6355 -3.8879 12.5379 54.7895 -17.2175 -28.6974 33.8077 -17.0784 -1.6268 0.0000 -0.0000 0.0000 -84.4811 2.6778 29.1269 14.7956 -23.8606 -3.1428 -0.0000 0.0000 -34.9895 19.0699 -7.2178 -2.4870 -7.1250 0.0000 -0.0000 -5.6431 22.3597 3.0867 0.0000 -0.0000 0.0000 89.9932 -2.9549 38.7906 -11.9068 19.6648 -2.0708 0.0000 0.0000 17.8473 -9.6447 -7.9053 1.3389 7.1250 -0.0000 -0.0000 14.6122 -37.6199 2.7248
0.00 0.00 0.00 -176.5780 2.9357 -166.7600 0.0000 0.0000 0.0000 -14.7974 -13.4581 -38.0878 3.2754 11.1281 32.7132 -0.0815 -10.9783 -6.3868 0.6552 -5.1776 -14.4157 0.0000 0.0000 0.0000 23.1541 4.1791 -5.1115 -3.3965 -11.3108 33.3352 0.7685 18.4789 17.9952 -0.9823 6.3087 -17.6827 2.7831 1.9430 -6.6294 -1.7243 2.4900 -0.7162 -3.1117 1.3069 3.1710 -21.5285 -5.0122 14.1165 54.5105 -18.2864 -29.3179 33.2455 -17.3726 -1.4547 0.0000 -0.0000 0.0000 -84.2334 1.5757 30.8548 14.1542 -22.9547 -2.8880 -0.0000 0.0000 -32.0480 21.0912 -4.5432 -1.7499 -7.1250 0.0000 -0.0000 -4.1781 25.1111 2.0152 0.0000 -0.0000 0.0000 89.9705 -3.9554 38.4109 -11.1406 18.5035 -1.8203 0.0000 0.0000 18.4093 -10.4455 -10.5371 1.9309 7.1250 -0.0000 -0.0000 14.5456 -40.2614 1.7415
